<svg xmlns="http://www.w3.org/2000/svg" width="18" height="16" viewBox="0 0 18 16" fill="none">
  <path d="M6.75 1.5C6.75 1.36739 6.80926 1.24021 6.91475 1.14645C7.02024 1.05268 7.16331 1 7.3125 1C7.46168 1 7.60476 1.05268 7.71025 1.14645C7.81574 1.24021 7.875 1.36739 7.875 1.5V13.793C7.87498 13.8918 7.84201 13.9884 7.78027 14.0706C7.71853 14.1528 7.63079 14.2168 7.52811 14.2547C7.42543 14.2926 7.31243 14.3026 7.20338 14.2834C7.09432 14.2642 6.9941 14.2168 6.91537 14.147L1.68637 9.5C1.63399 9.45355 1.59243 9.39838 1.56407 9.33763C1.53571 9.27689 1.52112 9.21177 1.52112 9.146C1.52112 9.08023 1.53571 9.01511 1.56407 8.95437C1.59243 8.89362 1.63399 8.83845 1.68637 8.792H1.68862C1.79406 8.69857 1.93687 8.64611 2.08575 8.64611C2.23463 8.64611 2.37744 8.69857 2.48287 8.792L6.75 12.588V1.5ZM10.125 2.207C10.1252 2.10827 10.1584 2.01181 10.2202 1.92979C10.282 1.84777 10.3698 1.78386 10.4724 1.7461C10.575 1.70835 10.6879 1.69845 10.7969 1.71765C10.9058 1.73685 11.006 1.7843 11.0846 1.854L16.3136 6.5C16.366 6.54645 16.4076 6.60162 16.4359 6.66237C16.4643 6.72311 16.4789 6.78823 16.4789 6.854C16.4789 6.91977 16.4643 6.98489 16.4359 7.04563C16.4076 7.10638 16.366 7.16155 16.3136 7.208H16.3114C16.2059 7.30143 16.0631 7.35389 15.9142 7.35389C15.7654 7.35389 15.6226 7.30143 15.5171 7.208L11.25 3.414V14.5C11.25 14.6326 11.1907 14.7598 11.0852 14.8536C10.9798 14.9473 10.8367 15 10.6875 15C10.5383 15 10.3952 14.9473 10.2898 14.8536C10.1843 14.7598 10.125 14.6326 10.125 14.5V2.207Z" fill="#F8F8F8"/>
</svg>